<?xml version="1.0" encoding="UTF-8" standalone="no"?>
<!-- Created with Inkscape (http://www.inkscape.org/) -->

<svg
   xmlns:dc="http://purl.org/dc/elements/1.1/"
   xmlns:cc="http://creativecommons.org/ns#"
   xmlns:rdf="http://www.w3.org/1999/02/22-rdf-syntax-ns#"
   xmlns:svg="http://www.w3.org/2000/svg"
   xmlns="http://www.w3.org/2000/svg"
   xmlns:xlink="http://www.w3.org/1999/xlink"
   version="1.1"
   width="240"
   height="101.95"
   id="svg8344">
  <defs
     id="defs8346">
    <linearGradient
       id="linearGradient5176">
      <stop
         id="stop5178"
         style="stop-color:#000000;stop-opacity:1"
         offset="0" />
      <stop
         id="stop5180"
         style="stop-color:#000000;stop-opacity:0"
         offset="1" />
    </linearGradient>
    <linearGradient
       id="linearGradient4896">
      <stop
         id="stop4898"
         style="stop-color:#646464;stop-opacity:1"
         offset="0" />
      <stop
         id="stop4900"
         style="stop-color:#e1e1e1;stop-opacity:1"
         offset="0.27269381" />
      <stop
         id="stop4902"
         style="stop-color:#646464;stop-opacity:1"
         offset="1" />
    </linearGradient>
    <linearGradient
       id="linearGradient3814">
      <stop
         id="stop3816"
         style="stop-color:#646464;stop-opacity:1"
         offset="0" />
      <stop
         id="stop3818"
         style="stop-color:#c8c8c8;stop-opacity:1"
         offset="0.29449484" />
      <stop
         id="stop3820"
         style="stop-color:#646464;stop-opacity:1"
         offset="1" />
    </linearGradient>
    <linearGradient
       id="linearGradient3806">
      <stop
         id="stop3808"
         style="stop-color:#ffffff;stop-opacity:1"
         offset="0" />
      <stop
         id="stop3810"
         style="stop-color:#ffffff;stop-opacity:0"
         offset="1" />
    </linearGradient>
    <linearGradient
       id="linearGradient5375">
      <stop
         id="stop5377"
         style="stop-color:#646464;stop-opacity:1"
         offset="0" />
      <stop
         id="stop3812"
         style="stop-color:#c8c8c8;stop-opacity:1"
         offset="0.5" />
      <stop
         id="stop5379"
         style="stop-color:#646464;stop-opacity:1"
         offset="1" />
    </linearGradient>
    <linearGradient
       id="linearGradient5359">
      <stop
         id="stop5361"
         style="stop-color:#1300ff;stop-opacity:1"
         offset="0" />
      <stop
         id="stop5371"
         style="stop-color:#fcff00;stop-opacity:1"
         offset="0.25" />
      <stop
         id="stop5367"
         style="stop-color:#31ff00;stop-opacity:1"
         offset="0.5" />
      <stop
         id="stop5369"
         style="stop-color:#f0ff00;stop-opacity:1"
         offset="0.75" />
      <stop
         id="stop5363"
         style="stop-color:#ff1e00;stop-opacity:1"
         offset="1" />
    </linearGradient>
    <linearGradient
       id="linearGradient3907">
      <stop
         id="stop3909"
         style="stop-color:#5c3817;stop-opacity:1"
         offset="0" />
      <stop
         id="stop3913"
         style="stop-color:#e0c3a0;stop-opacity:1"
         offset="0.5" />
      <stop
         id="stop3915"
         style="stop-color:#9a6921;stop-opacity:1"
         offset="0.75" />
      <stop
         id="stop3911"
         style="stop-color:#edd1a3;stop-opacity:1"
         offset="1" />
    </linearGradient>
    <linearGradient
       id="linearGradient3797">
      <stop
         id="stop3799"
         style="stop-color:#ffffff;stop-opacity:1"
         offset="0" />
      <stop
         id="stop3801"
         style="stop-color:#ffffff;stop-opacity:0"
         offset="1" />
    </linearGradient>
    <linearGradient
       id="linearGradient3787">
      <stop
         id="stop3789"
         style="stop-color:#191341;stop-opacity:1"
         offset="0" />
      <stop
         id="stop3791"
         style="stop-color:#9ba8f4;stop-opacity:1"
         offset="1" />
    </linearGradient>
    <linearGradient
       id="linearGradient9054">
      <stop
         id="stop9056"
         style="stop-color:#5c3817;stop-opacity:1"
         offset="0" />
      <stop
         id="stop9058"
         style="stop-color:#edd1a3;stop-opacity:1"
         offset="1" />
    </linearGradient>
    <linearGradient
       id="linearGradient8864">
      <stop
         id="stop8866"
         style="stop-color:#960000;stop-opacity:1"
         offset="0" />
      <stop
         id="stop8868"
         style="stop-color:#a82020;stop-opacity:1"
         offset="1" />
    </linearGradient>
    <linearGradient
       x1="273.7114"
       y1="189.11635"
       x2="294.22626"
       y2="166.89301"
       id="linearGradient8870"
       xlink:href="#linearGradient8864"
       gradientUnits="userSpaceOnUse" />
    <linearGradient
       x1="386.10068"
       y1="158.68277"
       x2="386.10068"
       y2="127.54837"
       id="linearGradient8888"
       xlink:href="#linearGradient3787"
       gradientUnits="userSpaceOnUse" />
    <linearGradient
       x1="376.43591"
       y1="166.17355"
       x2="376.43591"
       y2="140.33025"
       id="linearGradient9060"
       xlink:href="#linearGradient9054"
       gradientUnits="userSpaceOnUse"
       spreadMethod="reflect" />
    <linearGradient
       x1="390.49506"
       y1="141.5248"
       x2="390.49506"
       y2="141.99799"
       id="linearGradient3803"
       xlink:href="#linearGradient3797"
       gradientUnits="userSpaceOnUse" />
    <linearGradient
       x1="390.49506"
       y1="141.5248"
       x2="390.49506"
       y2="141.99799"
       id="linearGradient3860"
       xlink:href="#linearGradient3797"
       gradientUnits="userSpaceOnUse" />
    <linearGradient
       x1="390.49506"
       y1="141.5248"
       x2="390.49506"
       y2="141.99799"
       id="linearGradient3887"
       xlink:href="#linearGradient3797"
       gradientUnits="userSpaceOnUse" />
    <linearGradient
       x1="376.43591"
       y1="167.13589"
       x2="376.43591"
       y2="145.9239"
       id="linearGradient5381"
       xlink:href="#linearGradient5375"
       gradientUnits="userSpaceOnUse"
       spreadMethod="reflect" />
    <linearGradient
       x1="373.86203"
       y1="147.03503"
       x2="373.86203"
       y2="147.60529"
       id="linearGradient3812"
       xlink:href="#linearGradient3806"
       gradientUnits="userSpaceOnUse" />
    <linearGradient
       x1="376.43591"
       y1="138.39406"
       x2="376.43591"
       y2="164.70757"
       id="linearGradient3818"
       xlink:href="#linearGradient3814"
       gradientUnits="userSpaceOnUse"
       spreadMethod="pad" />
    <linearGradient
       x1="361.75876"
       y1="153.79631"
       x2="361.75876"
       y2="152.817"
       id="linearGradient3826"
       xlink:href="#linearGradient8864"
       gradientUnits="userSpaceOnUse" />
    <linearGradient
       x1="361.75876"
       y1="153.79631"
       x2="361.75876"
       y2="152.817"
       id="linearGradient4024"
       xlink:href="#linearGradient8864"
       gradientUnits="userSpaceOnUse" />
    <linearGradient
       x1="376.43591"
       y1="138.39406"
       x2="376.43591"
       y2="164.70757"
       id="linearGradient4026"
       xlink:href="#linearGradient3814"
       gradientUnits="userSpaceOnUse"
       spreadMethod="pad" />
    <linearGradient
       x1="361.75876"
       y1="153.79631"
       x2="361.75876"
       y2="152.817"
       id="linearGradient4060"
       xlink:href="#linearGradient8864"
       gradientUnits="userSpaceOnUse" />
    <linearGradient
       x1="376.43591"
       y1="138.39406"
       x2="376.43591"
       y2="164.70757"
       id="linearGradient4062"
       xlink:href="#linearGradient3814"
       gradientUnits="userSpaceOnUse"
       spreadMethod="pad" />
    <linearGradient
       x1="361.75876"
       y1="153.79631"
       x2="361.75876"
       y2="152.817"
       id="linearGradient4270"
       xlink:href="#linearGradient8864"
       gradientUnits="userSpaceOnUse" />
    <linearGradient
       x1="376.43591"
       y1="138.39406"
       x2="376.43591"
       y2="164.70757"
       id="linearGradient4272"
       xlink:href="#linearGradient3814"
       gradientUnits="userSpaceOnUse"
       spreadMethod="pad" />
    <linearGradient
       x1="320.34689"
       y1="125.82745"
       x2="481.82126"
       y2="125.82745"
       id="linearGradient4860"
       xlink:href="#linearGradient5375"
       gradientUnits="userSpaceOnUse" />
    <linearGradient
       x1="320.34689"
       y1="125.82745"
       x2="481.82126"
       y2="125.82745"
       id="linearGradient4868"
       xlink:href="#linearGradient8864"
       gradientUnits="userSpaceOnUse" />
    <linearGradient
       x1="454.63077"
       y1="78.117043"
       x2="454.63077"
       y2="113.94147"
       id="linearGradient4880"
       xlink:href="#linearGradient4896"
       gradientUnits="userSpaceOnUse" />
    <linearGradient
       x1="419.84689"
       y1="113.82745"
       x2="419.84689"
       y2="113.07092"
       id="linearGradient4910"
       xlink:href="#linearGradient8864"
       gradientUnits="userSpaceOnUse" />
    <filter
       color-interpolation-filters="sRGB"
       id="filter5107">
      <feGaussianBlur
         id="feGaussianBlur5109"
         stdDeviation="1.4961143" />
    </filter>
    <linearGradient
       x1="419.84689"
       y1="63.827454"
       x2="419.84692"
       y2="113.07092"
       id="linearGradient3827"
       xlink:href="#linearGradient3806"
       gradientUnits="userSpaceOnUse" />
    <linearGradient
       x1="419.84689"
       y1="113.82745"
       x2="419.84689"
       y2="113.07092"
       id="linearGradient4714"
       xlink:href="#linearGradient8864"
       gradientUnits="userSpaceOnUse" />
    <linearGradient
       x1="454.63077"
       y1="78.117043"
       x2="454.63077"
       y2="113.94147"
       id="linearGradient4716"
       xlink:href="#linearGradient4896"
       gradientUnits="userSpaceOnUse" />
    <linearGradient
       x1="419.84689"
       y1="113.82745"
       x2="419.84689"
       y2="113.07092"
       id="linearGradient4932"
       xlink:href="#linearGradient8864"
       gradientUnits="userSpaceOnUse" />
    <linearGradient
       x1="454.63077"
       y1="78.117043"
       x2="454.63077"
       y2="113.94147"
       id="linearGradient4934"
       xlink:href="#linearGradient4896"
       gradientUnits="userSpaceOnUse" />
    <linearGradient
       x1="419.84689"
       y1="113.82745"
       x2="419.84689"
       y2="113.07092"
       id="linearGradient4981"
       xlink:href="#linearGradient8864"
       gradientUnits="userSpaceOnUse" />
    <linearGradient
       x1="454.63077"
       y1="78.117043"
       x2="454.63077"
       y2="113.94147"
       id="linearGradient4983"
       xlink:href="#linearGradient4896"
       gradientUnits="userSpaceOnUse" />
    <linearGradient
       x1="419.84689"
       y1="113.82745"
       x2="419.84689"
       y2="113.07092"
       id="linearGradient5034"
       xlink:href="#linearGradient8864"
       gradientUnits="userSpaceOnUse" />
    <linearGradient
       x1="454.63077"
       y1="78.117043"
       x2="454.63077"
       y2="113.94147"
       id="linearGradient5036"
       xlink:href="#linearGradient4896"
       gradientUnits="userSpaceOnUse" />
    <linearGradient
       x1="419.84689"
       y1="113.82745"
       x2="419.84689"
       y2="113.07092"
       id="linearGradient5064"
       xlink:href="#linearGradient8864"
       gradientUnits="userSpaceOnUse" />
    <linearGradient
       x1="454.63077"
       y1="78.117043"
       x2="454.63077"
       y2="113.94147"
       id="linearGradient5066"
       xlink:href="#linearGradient4896"
       gradientUnits="userSpaceOnUse" />
    <linearGradient
       x1="419.84689"
       y1="113.82745"
       x2="419.84689"
       y2="113.07092"
       id="linearGradient5104"
       xlink:href="#linearGradient8864"
       gradientUnits="userSpaceOnUse" />
    <linearGradient
       x1="454.63077"
       y1="78.117043"
       x2="454.63077"
       y2="113.94147"
       id="linearGradient5106"
       xlink:href="#linearGradient4896"
       gradientUnits="userSpaceOnUse" />
    <linearGradient
       x1="381.04453"
       y1="109.3366"
       x2="723.35278"
       y2="109.3366"
       id="linearGradient5182"
       xlink:href="#linearGradient5176"
       gradientUnits="userSpaceOnUse" />
    <linearGradient
       x1="419.84689"
       y1="113.82745"
       x2="419.84689"
       y2="113.07092"
       id="linearGradient5268"
       xlink:href="#linearGradient8864"
       gradientUnits="userSpaceOnUse" />
    <linearGradient
       x1="454.63077"
       y1="78.117043"
       x2="454.63077"
       y2="113.94147"
       id="linearGradient5270"
       xlink:href="#linearGradient4896"
       gradientUnits="userSpaceOnUse" />
    <linearGradient
       x1="419.84689"
       y1="113.82745"
       x2="419.84689"
       y2="113.07092"
       id="linearGradient5355"
       xlink:href="#linearGradient8864"
       gradientUnits="userSpaceOnUse" />
    <linearGradient
       x1="454.63077"
       y1="78.117043"
       x2="454.63077"
       y2="113.94147"
       id="linearGradient5357"
       xlink:href="#linearGradient4896"
       gradientUnits="userSpaceOnUse" />
    <linearGradient
       x1="419.84689"
       y1="113.82745"
       x2="419.84689"
       y2="113.07092"
       id="linearGradient5478"
       xlink:href="#linearGradient8864"
       gradientUnits="userSpaceOnUse" />
    <linearGradient
       x1="454.63077"
       y1="78.117043"
       x2="454.63077"
       y2="113.94147"
       id="linearGradient5480"
       xlink:href="#linearGradient4896"
       gradientUnits="userSpaceOnUse" />
  </defs>
  <metadata
     id="metadata8349">
    <rdf:RDF>
      <cc:Work
         rdf:about="">
        <dc:format>image/svg+xml</dc:format>
        <dc:type
           rdf:resource="http://purl.org/dc/dcmitype/StillImage" />
        <dc:title></dc:title>
      </cc:Work>
    </rdf:RDF>
  </metadata>
  <g
     transform="translate(-369.40112,-152.18009)"
     id="layer1">
    <g
       id="text4016"
       style="font-size:90.06104279px;font-style:normal;font-variant:normal;font-weight:normal;font-stretch:normal;line-height:125%;letter-spacing:0px;word-spacing:0px;fill-opacity:1;font-family:Webdings;-inkscape-font-specification:Webdings">
      <path
         d="m 400.04742,131.53665 -13.95946,0 0,-34.583439 -9.09617,0 0,-9.996776 9.27629,0 0,-5.763906 c -10e-6,-6.064054 1.41094,-10.567102 4.23287,-13.509157 2.88193,-3.001968 7.20486,-4.502984 12.96879,-4.503052 1.92127,6.8e-5 3.60241,0.12015 5.04342,0.360244 1.44094,0.18019 2.55169,0.360312 3.33226,0.540367 l -0.81055,10.627203 c -0.60045,-0.300147 -1.26089,-0.57033 -1.98135,-0.81055 -0.66048,-0.240105 -1.68117,-0.360186 -3.06207,-0.360244 -2.1615,5.8e-5 -3.69253,0.690525 -4.59312,2.071404 -0.84059,1.32095 -1.29089,3.122169 -1.35091,5.403663 l 0,5.944028 10.98745,0 0,9.996776 -10.98745,0 0,34.583439"
         id="path5483"
         style="letter-spacing:-1px;font-family:Doris PP;-inkscape-font-specification:Doris PP" />
      <path
         d="m 451.7472,120.45914 0.45031,10.71727 c -0.84061,0.18012 -2.34163,0.4503 -4.50306,0.81055 -2.1615,0.42028 -4.65318,0.63042 -7.47506,0.63042 -7.9254,0 -14.22966,-2.10142 -18.91282,-6.30427 -4.62314,-4.26288 -6.93471,-10.0568 -6.9347,-17.38178 -10e-6,-6.84461 2.31156,-12.398369 6.9347,-16.661293 4.68316,-4.262846 10.77728,-6.394288 18.28239,-6.394334 2.4016,4.6e-5 4.65312,0.210188 6.75458,0.630427 2.16143,0.360289 3.96264,0.870634 5.40366,1.531038 l -1.08073,10.627203 c -0.66049,-0.480292 -1.83128,-0.960617 -3.51238,-1.440977 -1.68118,-0.48029 -3.4824,-0.720453 -5.40367,-0.720488 -3.84263,3.5e-5 -6.93472,1.140807 -9.27628,3.42232 -2.28157,2.281574 -3.42234,5.313624 -3.42232,9.096164 -2e-5,3.96271 1.17077,7.11484 3.51238,9.45641 2.4016,2.3416 5.61378,3.51239 9.63653,3.51238 2.28151,1e-5 4.29287,-0.21013 6.03409,-0.63043 1.80118,-0.48031 2.97197,-0.78051 3.51238,-0.90061"
         id="path5485"
         style="letter-spacing:-1px;font-family:Doris PP;-inkscape-font-specification:Doris PP" />
      <path
         d="m 472.50679,125.4125 0,25.12703 -14.04952,0 0,-63.583095 13.23897,0 0,7.655189 c 2.04137,-3.362239 4.38295,-5.643783 7.02477,-6.844639 2.7018,-1.26081 5.61377,-1.891236 8.73592,-1.891282 6.18415,4.6e-5 11.07746,2.131488 14.67995,6.394334 3.60239,4.262924 5.4036,9.936763 5.40366,17.021533 -6e-5,7.02478 -1.92136,12.6686 -5.76391,16.93148 -3.78261,4.26289 -8.796,6.39433 -15.04019,6.39433 -2.64182,0 -5.28361,-0.54036 -7.92537,-1.62109 -2.58178,-1.08074 -4.6832,-2.942 -6.30428,-5.58379 m 0,-15.9408 c 0.06,3.42233 1.02067,6.33431 2.88196,8.73592 1.92127,2.40164 4.41296,3.60245 7.47506,3.60244 3.00201,1e-5 5.43365,-1.17078 7.29495,-3.51238 1.86122,-2.40161 2.79185,-5.46369 2.79189,-9.18623 -4e-5,-3.78254 -0.90065,-6.78457 -2.70183,-9.0061 -1.80126,-2.221474 -4.26292,-3.332226 -7.38501,-3.332261 -2.94202,3.5e-5 -5.37366,1.110787 -7.29494,3.332261 -1.92132,2.22153 -2.94201,5.01342 -3.06208,8.37567 l 0,0.99068"
         id="path5487"
         style="letter-spacing:-1px;font-family:Doris PP;-inkscape-font-specification:Doris PP" />
      <path
         d="m 528.85035,125.4125 0,25.12703 -14.04952,0 0,-63.583095 13.23897,0 0,7.655189 c 2.04137,-3.362239 4.38295,-5.643783 7.02476,-6.844639 2.70181,-1.26081 5.61378,-1.891236 8.73593,-1.891282 6.18415,4.6e-5 11.07746,2.131488 14.67995,6.394334 3.60238,4.262924 5.4036,9.936763 5.40366,17.021533 -6e-5,7.02478 -1.92136,12.6686 -5.76391,16.93148 -3.78261,4.26289 -8.796,6.39433 -15.04019,6.39433 -2.64182,0 -5.28361,-0.54036 -7.92537,-1.62109 -2.58178,-1.08074 -4.6832,-2.942 -6.30428,-5.58379 m 0,-15.9408 c 0.06,3.42233 1.02067,6.33431 2.88196,8.73592 1.92127,2.40164 4.41296,3.60245 7.47506,3.60244 3.002,1e-5 5.43365,-1.17078 7.29495,-3.51238 1.86122,-2.40161 2.79185,-5.46369 2.79189,-9.18623 -4e-5,-3.78254 -0.90065,-6.78457 -2.70183,-9.0061 -1.80126,-2.221474 -4.26292,-3.332226 -7.38501,-3.332261 -2.94202,3.5e-5 -5.37366,1.110787 -7.29494,3.332261 -1.92132,2.22153 -2.94202,5.01342 -3.06208,8.37567 l 0,0.99068"
         id="path5489"
         style="letter-spacing:-1px;font-family:Doris PP;-inkscape-font-specification:Doris PP" />
      <path
         d="m 589.87708,115.14554 c -3e-5,2.46168 0.51032,4.32294 1.53104,5.58379 1.0807,1.20082 2.64176,1.80123 4.68317,1.80122 1.26082,10e-6 2.34155,-0.12007 3.2422,-0.36025 0.96061,-0.24015 1.6811,-0.48031 2.16146,-0.72049 l 0.36025,10.08684 c -0.72053,0.24016 -2.0114,0.48033 -3.87263,0.72049 -1.80125,0.24016 -3.72255,0.36024 -5.7639,0.36024 -5.40369,0 -9.48645,-1.32089 -12.24831,-3.96268 -2.70184,-2.64179 -4.05275,-6.57445 -4.05274,-11.798 l 0,-19.903489 -9.00611,0 0,-9.636531 9.18623,-0.360245 0.54037,-9.996775 13.14891,-4.232869 0.0901,14.229644 11.34769,0 0,9.996776 -11.34769,0 0,18.192329"
         id="path5491"
         style="letter-spacing:-1px;font-family:Doris PP;-inkscape-font-specification:Doris PP" />
    </g>
    <use
       transform="translate(1.9999995,98)"
       id="use4890"
       style="opacity:0.5;fill:#000000;fill-opacity:1;stroke:none;filter:url(#filter5107)"
       x="0"
       y="0"
       width="146.42813"
       height="69.084373"
       xlink:href="#text4016" />
    <use
       transform="translate(-5e-7,94)"
       id="use4872"
       style="fill:url(#linearGradient5478);fill-opacity:1;stroke:url(#linearGradient5480);stroke-width:2;stroke-linecap:round;stroke-linejoin:round;stroke-miterlimit:4;stroke-dasharray:none"
       x="0"
       y="0"
       width="146.42813"
       height="69.084373"
       xlink:href="#text4016" />
  </g>
</svg>
